<svg width="16" height="16" viewBox="0 0 16 16" fill="none" xmlns="http://www.w3.org/2000/svg">
<g id="cog" clip-path="url(#clip0_108_2950)">
<path id="Vector" d="M7.99984 13.3333C9.41433 13.3333 10.7709 12.7714 11.7711 11.7712C12.7713 10.771 13.3332 9.41445 13.3332 7.99996C13.3332 6.58547 12.7713 5.22892 11.7711 4.22872C10.7709 3.22853 9.41433 2.66663 7.99984 2.66663C6.58535 2.66663 5.2288 3.22853 4.2286 4.22872C3.22841 5.22892 2.6665 6.58547 2.6665 7.99996C2.6665 9.41445 3.22841 10.771 4.2286 11.7712C5.2288 12.7714 6.58535 13.3333 7.99984 13.3333Z" stroke="#7FFBAB" stroke-width="1.25" stroke-linecap="round" stroke-linejoin="round"/>
<path id="Vector_2" d="M7.99984 9.33329C8.35346 9.33329 8.6926 9.19282 8.94265 8.94277C9.19269 8.69272 9.33317 8.35358 9.33317 7.99996C9.33317 7.64634 9.19269 7.3072 8.94265 7.05715C8.6926 6.8071 8.35346 6.66663 7.99984 6.66663C7.64622 6.66663 7.30708 6.8071 7.05703 7.05715C6.80698 7.3072 6.6665 7.64634 6.6665 7.99996C6.6665 8.35358 6.80698 8.69272 7.05703 8.94277C7.30708 9.19282 7.64622 9.33329 7.99984 9.33329Z" stroke="#7FFBAB" stroke-width="1.25" stroke-linecap="round" stroke-linejoin="round"/>
<path id="Vector_3" d="M8 1.33337V2.66671" stroke="#7FFBAB" stroke-width="1.25" stroke-linecap="round" stroke-linejoin="round"/>
<path id="Vector_4" d="M8 14.6667V13.3334" stroke="#7FFBAB" stroke-width="1.25" stroke-linecap="round" stroke-linejoin="round"/>
<path id="Vector_5" d="M11.3332 13.7733L10.6665 12.62" stroke="#7FFBAB" stroke-width="1.25" stroke-linecap="round" stroke-linejoin="round"/>
<path id="Vector_6" d="M7.33317 6.84668L4.6665 2.22668" stroke="#7FFBAB" stroke-width="1.25" stroke-linecap="round" stroke-linejoin="round"/>
<path id="Vector_7" d="M13.7735 11.3333L12.6201 10.6666" stroke="#7FFBAB" stroke-width="1.25" stroke-linecap="round" stroke-linejoin="round"/>
<path id="Vector_8" d="M2.22656 4.66663L3.3799 5.33329" stroke="#7FFBAB" stroke-width="1.25" stroke-linecap="round" stroke-linejoin="round"/>
<path id="Vector_9" d="M9.3335 8H14.6668" stroke="#7FFBAB" stroke-width="1.25" stroke-linecap="round" stroke-linejoin="round"/>
<path id="Vector_10" d="M1.3335 8H2.66683" stroke="#7FFBAB" stroke-width="1.25" stroke-linecap="round" stroke-linejoin="round"/>
<path id="Vector_11" d="M13.7735 4.66663L12.6201 5.33329" stroke="#7FFBAB" stroke-width="1.25" stroke-linecap="round" stroke-linejoin="round"/>
<path id="Vector_12" d="M2.22656 11.3333L3.3799 10.6666" stroke="#7FFBAB" stroke-width="1.25" stroke-linecap="round" stroke-linejoin="round"/>
<path id="Vector_13" d="M11.3332 2.22668L10.6665 3.38002" stroke="#7FFBAB" stroke-width="1.25" stroke-linecap="round" stroke-linejoin="round"/>
<path id="Vector_14" d="M7.33317 9.15332L4.6665 13.7733" stroke="#7FFBAB" stroke-width="1.25" stroke-linecap="round" stroke-linejoin="round"/>
</g>
<defs>
<clipPath id="clip0_108_2950">
<rect width="16" height="16" fill="white"/>
</clipPath>
</defs>
</svg>
