<svg width="16" height="16" viewBox="0 0 16 16" fill="none" xmlns="http://www.w3.org/2000/svg">
<path d="M2.66663 13V3.00004C2.66663 2.55801 2.84222 2.13409 3.15478 1.82153C3.46734 1.50897 3.89127 1.33337 4.33329 1.33337H12.6666C12.8434 1.33337 13.013 1.40361 13.138 1.52864C13.2631 1.65366 13.3333 1.82323 13.3333 2.00004V14C13.3333 14.1769 13.2631 14.3464 13.138 14.4714C13.013 14.5965 12.8434 14.6667 12.6666 14.6667H4.33329C3.89127 14.6667 3.46734 14.4911 3.15478 14.1786C2.84222 13.866 2.66663 13.4421 2.66663 13ZM2.66663 13C2.66663 12.558 2.84222 12.1341 3.15478 11.8215C3.46734 11.509 3.89127 11.3334 4.33329 11.3334H13.3333" stroke="white" stroke-width="1.5" stroke-linecap="round" stroke-linejoin="round"/>
<path d="M5.33337 7.33337H10.6667" stroke="white" stroke-width="1.5" stroke-linecap="round" stroke-linejoin="round"/>
<path d="M5.33337 4.66663H9.33337" stroke="white" stroke-width="1.5" stroke-linecap="round" stroke-linejoin="round"/>
</svg>
