<svg width="16" height="16" viewBox="0 0 16 16" fill="none" xmlns="http://www.w3.org/2000/svg">
<path d="M14 10.6667V5.33335C13.9998 5.09953 13.938 4.86989 13.821 4.66746C13.704 4.46503 13.5358 4.29692 13.3333 4.18002L8.66667 1.51335C8.46397 1.39633 8.23405 1.33472 8 1.33472C7.76595 1.33472 7.53603 1.39633 7.33333 1.51335L2.66667 4.18002C2.46418 4.29692 2.29599 4.46503 2.17897 4.66746C2.06196 4.86989 2.00024 5.09953 2 5.33335V10.6667C2.00024 10.9005 2.06196 11.1301 2.17897 11.3326C2.29599 11.535 2.46418 11.7031 2.66667 11.82L7.33333 14.4867C7.53603 14.6037 7.76595 14.6653 8 14.6653C8.23405 14.6653 8.46397 14.6037 8.66667 14.4867L13.3333 11.82C13.5358 11.7031 13.704 11.535 13.821 11.3326C13.938 11.1301 13.9998 10.9005 14 10.6667Z" stroke="white" stroke-width="1.5" stroke-linecap="round" stroke-linejoin="round"/>
<path d="M7.99998 10.6667C9.47274 10.6667 10.6666 9.4728 10.6666 8.00004C10.6666 6.52728 9.47274 5.33337 7.99998 5.33337C6.52722 5.33337 5.33331 6.52728 5.33331 8.00004C5.33331 9.4728 6.52722 10.6667 7.99998 10.6667Z" stroke="white" stroke-width="1.5" stroke-linecap="round" stroke-linejoin="round"/>
</svg>
