<svg xmlns="http://www.w3.org/2000/svg" width="40" height="33.924" viewBox="0 0 40 33.924">
  <path fill="#f5f5f5" d="M 7.021 5.492 C 4.398 8.438 2.872 12.401 2.872 16.959 C 2.872 26.514 9.559 33.451 19.051 33.899 L 20.03 33.924 C 20.03 33.924 20.03 33.924 20.034 33.924 C 20.037 33.924 20.034 33.924 20.037 33.924 L 40 33.924 L 40 33.438 L 33.263 29.296 C 33.263 29.296 32.924 29.192 32.908 28.804 C 32.902 28.65 32.95 28.542 33.052 28.426 C 35.672 25.479 37.198 21.52 37.198 16.965 C 37.198 7.41 30.511 0.473 21.02 0.025 L 20.03 0 L 20.04 0 C 20.04 0 20.037 0 20.034 0 C 20.03 0 20.03 0 20.027 0 L 0 0 L 0 0.486 L 6.82 4.637 C 6.82 4.637 7.098 4.729 7.156 5.047 C 7.203 5.303 7.021 5.495 7.021 5.495 M 7.963 16.962 C 7.963 9.489 12.916 4.621 20.046 4.621 C 27.176 4.621 32.13 9.489 32.13 16.962 C 32.13 24.435 27.176 29.303 20.046 29.303 C 12.916 29.303 7.963 24.435 7.963 16.962 Z" fill-rule="nonzero"></path>
</svg>